# xmcd
#
# Track frame offsets: 
#        150
#        14589
#        25735
#        36877
#        49890
#        62435
#        74087
#        87175
#        105240
#        116785
#        133824
#        149437
#        163908
#        176539
#        189634
#        206379
#        233002
#
# Disc length: 4270 seconds
#
# Revision: 2
# Processed by: cddbd v1.5.2PL0 Copyright (c) Steve Scherf et al.
# Submitted via: ExactAudioCopy v0.99pb4
#
DISCID=f210ac11
DTITLE=Eddie Floyd - Chronicle (Greatest Hits)
DYEAR=1999
DGENRE=Soul
TTITLE0=Knock On Wood
TTITLE1=Raise Your Hand
TTITLE2=Love Is A Doggone Good Thing
TTITLE3=On A Saturday Night
TTITLE4=I've Never Found A Girl (To Love Me Like You Do)
TTITLE5=Bring It On Home To Me
TTITLE6=I've Got To Have Your Love
TTITLE7=Don't Tell Your Mama
TTITLE8=Why Is The Wine Sweeter (On The Other Side)
TTITLE9=California Girl
TTITLE10=My Girl
TTITLE11=The Best Years Of My Life
TTITLE12=Blood Is Thicker Than Water
TTITLE13=Yum Yum Yum (I Want Some)
TTITLE14=Check Me Out
TTITLE15=Soul Street
TTITLE16=Multimedia-track incl.: video, biography and pictures
EXTD=© 1990/1999\nLabel: Fantasy Inc. (Stax Records]\nSCD24 4122-2\n24
EXTD=BIT Remastered
EXTT0=
EXTT1=
EXTT2=
EXTT3=
EXTT4=
EXTT5=
EXTT6=
EXTT7=
EXTT8=
EXTT9=
EXTT10=
EXTT11=
EXTT12=
EXTT13=
EXTT14=
EXTT15=
EXTT16=
PLAYORDER=
